
<svg xmlns="http://www.w3.org/2000/svg" xmlns:xlink="http://www.w3.org/1999/xlink" width="91.572" height="19.204" viewBox="0 0 91.572 19.204">
  <defs>
    <clipPath id="clip-path">
      <rect id="사각형_11" data-name="사각형 11" width="91.572" height="19.204" fill="none"/>
    </clipPath>
  </defs>
  <g id="그룹_4" data-name="그룹 4" transform="translate(-585.712 -256.599)">
    <g id="그룹_1" data-name="그룹 1" transform="translate(585.712 256.599)" clip-path="url(#clip-path)">
      <path id="패스_2" data-name="패스 2" d="M627.815,280.784v6.834H629.7v-5.561c.637-.545,1.091-.364,2.346.673l.763-1.709a3.784,3.784,0,0,0-1.581-.345,1.95,1.95,0,0,0-1.49.654l-.091.109-.018-.018.018-.636Z" transform="translate(-606.994 -268.769)" fill="#fff"/>
      <rect id="사각형_8" data-name="사각형 8" width="1.891" height="10.451" transform="translate(26.582 8.398)" fill="#fff"/>
      <rect id="사각형_9" data-name="사각형 9" width="1.89" height="6.835" transform="translate(49.455 12.015)" fill="#fff"/>
      <path id="패스_3" data-name="패스 3" d="M687.083,274.648a1,1,0,1,0,1,1,.986.986,0,0,0-1-1" transform="translate(-636.447 -265.722)" fill="#fff"/>
      <rect id="사각형_10" data-name="사각형 10" width="1.89" height="6.835" transform="translate(59.05 12.015)" fill="#fff"/>
      <path id="패스_4" data-name="패스 4" d="M706.009,274.648a1,1,0,1,0,1,1,.986.986,0,0,0-1-1" transform="translate(-646.014 -265.722)" fill="#fff"/>
      <path id="패스_5" data-name="패스 5" d="M692.247,282.7c-.181,2.6,3.636,1.981,3.526,3.563-.055.635-.6.854-1.181.836a2.9,2.9,0,0,1-2.036-1.218l-.563,1.254a5.608,5.608,0,0,0,2.326.709c1.636.109,3.018-.6,3.108-2.181.164-2.454-3.781-2.145-3.707-3.4.037-.545.654-.818,1.29-.782a2.964,2.964,0,0,1,1.727.927l.509-1.127a6.381,6.381,0,0,0-1.981-.509c-1.763-.109-2.944.818-3.018,1.927" transform="translate(-639.435 -268.816)" fill="#fff"/>
      <path id="패스_6" data-name="패스 6" d="M671.135,285.333h.8l4-9.179H674.9l-2.781,6.453-2.745-6.453h-2.29Z" transform="translate(-626.842 -266.484)" fill="#fff"/>
      <path id="패스_7" data-name="패스 7" d="M735.62,287.619v-3.762a2.962,2.962,0,0,0-3.089-3.181,3.813,3.813,0,0,0-2.2.781l-.037-.018v-.654H728.55v6.834h1.89v-5.507a2.447,2.447,0,0,1,1.581-.691,1.869,1.869,0,0,1,1.691,2.018v4.181Z" transform="translate(-657.913 -268.769)" fill="#fff"/>
      <path id="패스_8" data-name="패스 8" d="M593.418,277.065h-1.073l-2.145,5.544-2.29-6.379h-2.2l3.4,9.124h1.036l2.2-5.635,2.181,5.635h1.036l3.4-9.106h-1.036l-2.381,6.361Z" transform="translate(-585.712 -266.522)" fill="#fff"/>
      <path id="패스_9" data-name="패스 9" d="M614.611,280.749a3.5,3.5,0,1,0,3.708,3.49,3.47,3.47,0,0,0-3.708-3.49m0,6.325c-1.181,0-1.709-1.254-1.709-2.835s.527-2.836,1.709-2.836,1.709,1.255,1.709,2.836-.527,2.835-1.709,2.835" transform="translate(-598.445 -268.806)" fill="#fff"/>
      <path id="패스_10" data-name="패스 10" d="M715.089,280.749a3.5,3.5,0,1,0,3.708,3.49,3.47,3.47,0,0,0-3.708-3.49m0,6.325c-1.181,0-1.709-1.254-1.709-2.835s.527-2.836,1.709-2.836,1.709,1.255,1.709,2.836-.527,2.835-1.709,2.835" transform="translate(-649.235 -268.806)" fill="#fff"/>
      <path id="패스_11" data-name="패스 11" d="M651.063,273.581v4.163a3.663,3.663,0,0,0-2.145-.654,3.444,3.444,0,0,0-3.508,3.635,3.5,3.5,0,0,0,3.49,3.453,3.579,3.579,0,0,0,2.272-.818l.036.018v.654h1.746V273.581Zm0,9.107a2.393,2.393,0,0,1-1.636.727c-.836,0-1.927-.709-1.927-2.763,0-2.217,1.727-3.817,3.563-2.09Z" transform="translate(-615.888 -265.183)" fill="#fff"/>
      <path id="패스_12" data-name="패스 12" d="M706.859,256.6a.052.052,0,0,0-.052.051.054.054,0,0,0,.052.052,46.155,46.155,0,0,1,31.636,19.1V256.6Zm27.1,5.679c-.541.5-.472,2.347-.686,5.508h0c-.214-3.161-.145-5.007-.686-5.508-.5-.464-1.4-.59-2.936-.7,3.367-.389,3.285-.289,3.623-3.562.338,3.272.257,3.172,3.623,3.562-1.534.111-2.437.237-2.937.7" transform="translate(-646.923 -256.6)" fill="#fff"/>
    </g>
  </g>
</svg>
