<svg xmlns="http://www.w3.org/2000/svg" width="117.621" height="26.961" viewBox="0 0 117.621 26.961">
  <g id="그룹_6" data-name="그룹 6" transform="translate(-148.748 -286.019)">
    <g id="그룹_5" data-name="그룹 5" transform="translate(149.373 293.173)">
      <path id="패스_14" data-name="패스 14" d="M-3.5,86.926a1.583,1.583,0,0,1-1.582,1.582H-30.4a1.583,1.583,0,0,1-1.582-1.582A1.583,1.583,0,0,1-30.4,85.344H-5.083A1.583,1.583,0,0,1-3.5,86.926Z" transform="translate(31.984 -79.014)" fill="#f60" stroke="#f60" stroke-width="1"/>
      <path id="패스_15" data-name="패스 15" d="M-22.476,44.255a1.589,1.589,0,0,1-.462,1.12l-5.212,5.209,5.212,5.209a1.584,1.584,0,0,1,0,2.238,1.583,1.583,0,0,1-2.237,0l-6.33-6.33a1.583,1.583,0,0,1,0-2.237l6.33-6.33a1.583,1.583,0,0,1,2.237,0A1.589,1.589,0,0,1-22.476,44.255Z" transform="translate(31.97 -42.672)" fill="#f60" stroke="#f60" stroke-width="1"/>
      <path id="패스_16" data-name="패스 16" d="M386.016,86.905a1.583,1.583,0,0,1,1.582-1.582h25.319a1.582,1.582,0,1,1,0,3.165H387.6A1.583,1.583,0,0,1,386.016,86.905Z" transform="translate(-298.003 -78.996)" fill="#f60" stroke="#f60" stroke-width="1"/>
      <path id="패스_17" data-name="패스 17" d="M514.012,56.911a1.59,1.59,0,0,1,.462-1.12l5.213-5.209-5.213-5.209a1.582,1.582,0,1,1,2.238-2.238l6.33,6.33a1.583,1.583,0,0,1,0,2.237l-6.33,6.33a1.581,1.581,0,0,1-2.7-1.12Z" transform="translate(-407.01 -42.672)" fill="#f60" stroke="#f60" stroke-width="1"/>
    </g>
    <ellipse id="타원_2" data-name="타원 2" cx="11.863" cy="11.863" rx="11.863" ry="11.863" transform="translate(198.904 286.019)" fill="#ffc69f"/>
    <ellipse id="타원_1" data-name="타원 1" cx="11.863" cy="11.863" rx="11.863" ry="11.863" transform="translate(194.67 289.255)" fill="#f60"/>
  </g>
</svg>
